<svg xmlns="http://www.w3.org/2000/svg" width="40" height="40" viewBox="0 0 40 40"><g><g opacity=".6"><g opacity=".6"/><g opacity=".6"><g opacity=".6"><g opacity=".6"><path fill="#1074a2" d="M38.859 5.473a1.507 1.507 0 0 0-2.132-.003L18.642 23.508l-6.525-7.087a1.508 1.508 0 0 0-2.219 2.042l7.588 8.24a1.506 1.506 0 0 0 2.174.048L38.856 7.605c.59-.588.59-1.543.003-2.132z"/></g></g></g><g opacity=".6"><g opacity=".6"><g opacity=".6"><path fill="#1074a2" d="M38.492 18.492c-.832 0-1.507.675-1.507 1.508 0 9.366-7.62 16.985-16.985 16.985-9.365 0-16.985-7.62-16.985-16.985 0-9.365 7.62-16.985 16.985-16.985A1.507 1.507 0 1 0 20 0C8.972 0 0 8.972 0 20s8.972 20 20 20 20-8.972 20-20c0-.833-.675-1.508-1.508-1.508z"/></g></g></g></g></g></svg>