<svg xmlns="http://www.w3.org/2000/svg" width="24" height="24" viewBox="0 0 24 24"><g><g><g/><g><g><g><path fill="#1074a2" d="M1.5 12.74v9c0 .828.673 1.5 1.5 1.5h7.5v-10.5z"/></g></g></g><g><g><g><path fill="#1074a2" d="M22.5 6.731c.828 0 1.5.674 1.5 1.5v2.25a.75.75 0 0 1-.75.75H13.5v-3h-3v3H.75a.75.75 0 0 1-.75-.75v-2.25c0-.826.673-1.5 1.5-1.5h4.746a5.936 5.936 0 0 1-.839-.67 3.14 3.14 0 0 1 .002-4.413c1.175-1.182 3.224-1.182 4.4 0 .649.652 2.374 3.309 2.137 5.083h.108c-.238-1.774 1.487-4.43 2.138-5.083 1.174-1.182 3.223-1.185 4.399 0a3.135 3.135 0 0 1 0 4.413 5.828 5.828 0 0 1-.837.67zM8.745 2.705a1.592 1.592 0 0 0-1.135-.474c-.43 0-.833.168-1.138.474a1.636 1.636 0 0 0 0 2.298c.647.651 2.625 1.728 3.662 1.728.214 0 .277-.05.277-.05.35-.36-.655-2.959-1.666-3.976zm8.783 2.298c.63-.633.63-1.665 0-2.298-.611-.613-1.668-.61-2.273 0-1.011 1.017-2.016 3.615-1.667 3.977 0 .001.064.05.277.05 1.037 0 3.016-1.078 3.662-1.729z"/></g></g></g><g><g><g><path fill="#1074a2" d="M13.5 12.74v10.5H21a1.5 1.5 0 0 0 1.5-1.5v-9z"/></g></g></g></g></g></svg>