<svg xmlns="http://www.w3.org/2000/svg" width="350" height="43" viewBox="0 0 350 43"><g><g><g/><g><g><g><g><path fill="#1074a2" d="M.21 0h16.552c18.797 0 19.712.17 22.707 3.942l1.704 2.197v4.506c0 5.013-.54 6.534-3.118 8.9-2.537 2.366-3.91 2.591-16.51 2.816l-12.186.282v8.9H.21zm9.565 6.759v10.139h9.108c5.448 0 9.607-.225 10.314-.62 1.705-.845 3.035-2.76 3.035-4.28 0-1.747-1.04-4.45-1.87-4.9-.375-.17-5.158-.339-10.648-.339z"/></g></g><g><g><path fill="#1074a2" d="M46.873 15.884c.083 8.787.25 15.884.457 15.772.166-.057 7.777-.113 16.926-.113h16.636V25.91H56.355V0H46.79z"/></g></g><g><g><path fill="#1074a2" d="M105.506 0h13.516l3.493 4.9c6.364 8.956 17.425 25.91 17.425 26.586 0 .169-2.495.226-5.572.057l-5.531-.282-2.205-3.549-2.162-3.492H100.1l-2.328 3.605-2.37 3.662-5.366.168c-2.994.113-5.406.057-5.406-.112 0-.508 10.688-16.842 15.887-24.39zm7.195 6.365c-.707-.281-7.694 9.857-7.694 11.152 0 .282 3.203.508 7.485.508 8.734 0 8.401.619 3.66-6.703-1.663-2.647-3.243-4.844-3.452-4.957z"/></g></g><g><g><path fill="#1074a2" d="M143.763 15.827l.125 15.772h9.565l.124-12.673c.042-6.985.209-12.73.334-12.73 1.205 0 5.073 3.887 14.679 14.813 3.494 4 7.237 8 8.277 8.9l1.912 1.634h16.053V0h-9.149l-.083 12.955-.125 12.955-1.664-1.183c-2.079-1.52-4.949-4.506-12.892-13.35-3.41-3.83-7.319-7.941-8.69-9.18L159.814 0H143.68z"/></g></g><g><g><path fill="#1074a2" d="M202.823 15.884c.083 8.787.25 15.884.457 15.772.166-.057 9.274-.113 20.253-.113h19.962V25.91h-31.19v-7.322h30.359v-5.633h-30.36V5.633h31.19V0H202.74z"/></g></g><g><g><path fill="#1074a2" d="M248.9 3.098v3.098h17.05v25.628l4.575-.168 4.574-.17V6.197l8.443-.112 8.4-.17V.281l-21.5-.168L248.9 0z"/></g></g><g><g><path fill="#1074a2" d="M314.697 0h13.932l5.406 7.999c6.737 10.026 15.097 22.98 15.097 23.488 0 .168-2.454.28-5.448.225l-5.49-.113-1.746-2.985c-.957-1.634-2.038-3.324-2.37-3.718-.5-.507-3.495-.676-12.851-.563l-12.185.169-2.122 3.549-2.12 3.548-5.49.113c-3.036.056-5.49 0-5.49-.17 0-.45 7.653-12.166 14.431-22.135zm11.229 11.716c-1.789-2.986-3.453-5.464-3.743-5.52-1.081 0-7.985 9.744-7.985 11.321 0 .564 6.32.564 11.52.056l3.368-.394z"/></g></g><g><g><path fill="#1074a2" d="M.166 37.905c0 .056-.041 1.07-.083 2.253L0 42.242h350l-.125-2.14-.125-2.085L175 37.905c-96.15-.113-174.792-.113-174.834 0z"/></g></g></g></g></g></g></svg>