<svg xmlns="http://www.w3.org/2000/svg" width="20" height="20" viewBox="0 0 20 20"><g><g><path fill="#009688" d="M19.987 19.483l-.5-2a2.904 2.904 0 0 0-1.904-2.066l-3.667-1.222c-.894-.372-1.303-1.812-1.391-2.36a3.465 3.465 0 0 0 1.225-2.252.68.68 0 0 1 .1-.429.417.417 0 0 0 .286-.25c.24-.58.39-1.195.447-1.82a.398.398 0 0 0-.013-.101 1.072 1.072 0 0 0-.404-.607v-2.21c0-1.342-.41-1.893-.841-2.212C13.242 1.308 12.55 0 10 0a4.345 4.345 0 0 0-4.167 4.167v2.209a1.072 1.072 0 0 0-.404.607.401.401 0 0 0-.013.1c.056.627.207 1.24.447 1.822.036.118.13.208.25.24.047.023.134.143.134.438.106.883.547 1.69 1.232 2.257-.088.546-.494 1.985-1.364 2.348l-3.699 1.229A2.904 2.904 0 0 0 .513 17.48l-.5 2a.417.417 0 0 0 .403.52h19.167a.417.417 0 0 0 .404-.518z"/></g></g></svg>